<svg width="32" height="33" viewBox="0 0 32 33" fill="none" xmlns="http://www.w3.org/2000/svg">
<g id="octicon:location-16">
<path id="Vector" d="M25.1922 23.6922L18.1222 30.7642C17.8436 31.043 17.5128 31.2641 17.1487 31.415C16.7846 31.5659 16.3943 31.6435 16.0002 31.6435C15.606 31.6435 15.2158 31.5659 14.8517 31.415C14.4876 31.2641 14.1568 31.043 13.8782 30.7642L6.80816 23.6922C5.60092 22.4851 4.64325 21.052 3.98985 19.4748C3.33644 17.8976 3.00009 16.2071 3 14.4999C2.99991 12.7927 3.33607 11.1022 3.98931 9.52489C4.64254 7.9476 5.60005 6.51442 6.80716 5.30718C8.01427 4.09994 9.44734 3.14228 11.0246 2.48887C12.6018 1.83547 14.2922 1.49912 15.9995 1.49902C17.7067 1.49893 19.3972 1.8351 20.9745 2.48833C22.5517 3.14156 23.9849 4.09907 25.1922 5.30618C26.3995 6.51337 27.3572 7.94655 28.0107 9.5239C28.6641 11.1012 29.0004 12.7919 29.0004 14.4992C29.0004 16.2065 28.6641 17.8971 28.0107 19.4745C27.3572 21.0518 26.3995 22.485 25.1922 23.6922ZM23.0722 7.42818C22.1434 6.49947 21.0409 5.76278 19.8275 5.26017C18.6141 4.75755 17.3135 4.49886 16.0002 4.49886C14.6868 4.49886 13.3862 4.75755 12.1728 5.26017C10.9594 5.76278 9.85687 6.49947 8.92816 7.42818C7.99945 8.35689 7.26276 9.45943 6.76014 10.6728C6.25753 11.8863 5.99884 13.1868 5.99884 14.5002C5.99884 15.8136 6.25753 17.1141 6.76014 18.3275C7.26276 19.5409 7.99945 20.6435 8.92816 21.5722L16.0002 28.6402L23.0722 21.5722C24.001 20.6436 24.7379 19.5411 25.2406 18.3276C25.7433 17.1142 26.002 15.8136 26.002 14.5002C26.002 13.1867 25.7433 11.8862 25.2406 10.6727C24.7379 9.45931 24.001 8.3568 23.0722 7.42818Z" fill="#0461E5"/>
<circle id="Ellipse 1093" cx="16" cy="15" r="3" fill="#0461E5"/>
</g>
</svg>
