<svg width="19" height="20" viewBox="0 0 19 20" fill="none" xmlns="http://www.w3.org/2000/svg">
<path d="M7.00015 8.33324C6.77913 8.33324 6.56717 8.42103 6.41089 8.57731C6.25461 8.7336 6.16681 8.94556 6.16681 9.16657V12.4999H7.83348V9.9999H10.3335V12.0832L13.2501 9.16657L10.3335 6.2499V8.33324H7.00015ZM10.0893 1.16074L18.3393 9.41074C18.4955 9.56701 18.5833 9.77893 18.5833 9.9999C18.5833 10.2209 18.4955 10.4328 18.3393 10.5891L10.0893 18.8391C9.93304 18.9953 9.72112 19.0831 9.50015 19.0831C9.27918 19.0831 9.06725 18.9953 8.91098 18.8391L0.660981 10.5891C0.504755 10.4328 0.416992 10.2209 0.416992 9.9999C0.416992 9.77893 0.504755 9.56701 0.660981 9.41074L8.91098 1.16074C9.06725 1.00451 9.27918 0.916748 9.50015 0.916748C9.72112 0.916748 9.93304 1.00451 10.0893 1.16074Z" fill="#0461E5"/>
</svg>
