<svg width="20" height="21" viewBox="0 0 20 21" fill="none" xmlns="http://www.w3.org/2000/svg">
<path fill-rule="evenodd" clip-rule="evenodd" d="M8 4.5C7.20435 4.5 6.44129 4.81607 5.87868 5.37868C5.31607 5.94129 5 6.70435 5 7.5V11.5C5 12.8261 5.52678 14.0979 6.46447 15.0355C7.40215 15.9732 8.67392 16.5 10 16.5C11.3261 16.5 12.5979 15.9732 13.5355 15.0355C14.4732 14.0979 15 12.8261 15 11.5V7.5C15 7.23478 15.1054 6.98043 15.2929 6.79289C15.4804 6.60536 15.7348 6.5 16 6.5C16.2652 6.5 16.5196 6.60536 16.7071 6.79289C16.8946 6.98043 17 7.23478 17 7.5V11.5C17 12.4193 16.8189 13.3295 16.4672 14.1788C16.1154 15.0281 15.5998 15.7997 14.9497 16.4497C14.2997 17.0998 13.5281 17.6154 12.6788 17.9672C11.8295 18.3189 10.9193 18.5 10 18.5C9.08075 18.5 8.1705 18.3189 7.32122 17.9672C6.47194 17.6154 5.70026 17.0998 5.05025 16.4497C4.40024 15.7997 3.88463 15.0281 3.53284 14.1788C3.18106 13.3295 3 12.4193 3 11.5V7.5C3 6.17392 3.52678 4.90215 4.46447 3.96447C5.40215 3.02678 6.67392 2.5 8 2.5C9.32608 2.5 10.5979 3.02678 11.5355 3.96447C12.4732 4.90215 13 6.17392 13 7.5V11.5C13 12.2956 12.6839 13.0587 12.1213 13.6213C11.5587 14.1839 10.7956 14.5 10 14.5C9.20435 14.5 8.44129 14.1839 7.87868 13.6213C7.31607 13.0587 7 12.2956 7 11.5V7.5C7 7.23478 7.10536 6.98043 7.29289 6.79289C7.48043 6.60536 7.73478 6.5 8 6.5C8.26522 6.5 8.51957 6.60536 8.70711 6.79289C8.89464 6.98043 9 7.23478 9 7.5V11.5C9 11.7652 9.10536 12.0196 9.29289 12.2071C9.48043 12.3946 9.73478 12.5 10 12.5C10.2652 12.5 10.5196 12.3946 10.7071 12.2071C10.8946 12.0196 11 11.7652 11 11.5V7.5C11 6.70435 10.6839 5.94129 10.1213 5.37868C9.55871 4.81607 8.79565 4.5 8 4.5Z" fill="#191737"/>
</svg>
