<svg width="24" height="24" viewBox="0 0 24 24" fill="none" xmlns="http://www.w3.org/2000/svg">
<g id="basil:camera-outline">
<g id="Group">
<path id="Vector" fill-rule="evenodd" clip-rule="evenodd" d="M8.25 13C8.25 12.0054 8.64509 11.0516 9.34835 10.3483C10.0516 9.64509 11.0054 9.25 12 9.25C12.9946 9.25 13.9484 9.64509 14.6517 10.3483C15.3549 11.0516 15.75 12.0054 15.75 13C15.75 13.9946 15.3549 14.9484 14.6517 15.6517C13.9484 16.3549 12.9946 16.75 12 16.75C11.0054 16.75 10.0516 16.3549 9.34835 15.6517C8.64509 14.9484 8.25 13.9946 8.25 13ZM12 10.75C11.4033 10.75 10.831 10.9871 10.409 11.409C9.98705 11.831 9.75 12.4033 9.75 13C9.75 13.5967 9.98705 14.169 10.409 14.591C10.831 15.0129 11.4033 15.25 12 15.25C12.5967 15.25 13.169 15.0129 13.591 14.591C14.0129 14.169 14.25 13.5967 14.25 13C14.25 12.4033 14.0129 11.831 13.591 11.409C13.169 10.9871 12.5967 10.75 12 10.75Z" fill="#181636"/>
<path id="Vector_2" fill-rule="evenodd" clip-rule="evenodd" d="M10.616 5.75C10.1142 5.75 9.63293 5.94934 9.27811 6.30415C8.92329 6.65897 8.72396 7.14021 8.72396 7.642C8.72378 7.96318 8.60287 8.27256 8.38521 8.50875C8.16755 8.74493 7.86906 8.89065 7.54896 8.917L5.31896 9.097C5.1057 9.11417 4.90401 9.20102 4.74498 9.34414C4.58596 9.48727 4.47842 9.67872 4.43896 9.889C3.99058 12.2589 3.95742 14.6887 4.34096 17.07L4.43796 17.674C4.52996 18.244 4.99896 18.679 5.57496 18.726L7.51796 18.884C10.5011 19.126 13.4989 19.126 16.482 18.884L18.424 18.726C18.704 18.7034 18.9684 18.5874 19.1747 18.3966C19.3811 18.2059 19.5174 17.9514 19.562 17.674L19.659 17.07C20.0422 14.6887 20.0087 12.2589 19.56 9.889C19.5203 9.67891 19.4127 9.48768 19.2537 9.34475C19.0947 9.20182 18.8931 9.11512 18.68 9.098L16.451 8.917C16.1307 8.8911 15.8319 8.74552 15.6142 8.50923C15.3964 8.27295 15.2757 7.96332 15.276 7.642C15.276 7.39354 15.227 7.14751 15.1319 6.91796C15.0369 6.68842 14.8975 6.47984 14.7218 6.30415C14.5461 6.12847 14.3375 5.9891 14.108 5.89402C13.8784 5.79894 13.6324 5.75 13.384 5.75H10.616ZM7.22996 7.438C7.28217 6.57533 7.66162 5.76509 8.29086 5.17265C8.9201 4.5802 9.7517 4.2502 10.616 4.25H13.384C15.189 4.25 16.664 5.66 16.77 7.438L18.802 7.603C19.3425 7.64664 19.8538 7.8667 20.2571 8.22933C20.6604 8.59196 20.9333 9.07707 21.034 9.61C21.515 12.15 21.551 14.755 21.14 17.308L21.043 17.913C20.945 18.5216 20.6457 19.0798 20.193 19.4982C19.7403 19.9166 19.1604 20.1711 18.546 20.221L16.604 20.379C13.5397 20.6278 10.4602 20.6278 7.39596 20.379L5.45396 20.221C4.83954 20.1711 4.2596 19.9166 3.80691 19.4982C3.35423 19.0798 3.05495 18.5216 2.95696 17.913L2.85996 17.308C2.44912 14.7552 2.48499 12.1505 2.96596 9.61C3.06673 9.07714 3.33973 8.59213 3.74298 8.22952C4.14624 7.86692 4.65742 7.6468 5.19796 7.603L7.22996 7.438Z" fill="#181636"/>
</g>
</g>
</svg>
