<svg width="16" height="17" viewBox="0 0 16 17" fill="none" xmlns="http://www.w3.org/2000/svg">
<path d="M1.93923 15.4C1.63923 15.4 1.43923 15.3 1.23923 15.1C1.03923 14.8 0.939231 14.5 1.03923 14.2L2.13923 9.8C2.13923 9.6 2.23923 9.5 2.43923 9.3L9.13923 2.5C9.73923 1.9 10.6392 1.5 11.5392 1.5C12.4392 1.5 13.3392 1.8 13.9392 2.5C15.2392 3.8 15.2392 6 13.9392 7.3L7.13923 14.1C7.03923 14.2 6.83923 14.3 6.63923 14.4L2.13923 15.4C2.03923 15.4 1.93923 15.4 1.93923 15.4ZM3.93923 10.6L3.23923 13.1L5.93923 12.5L12.4392 5.9C12.9392 5.4 12.9392 4.5 12.4392 3.9C12.1392 3.6 11.8392 3.5 11.4392 3.5C11.0392 3.5 10.7392 3.6 10.4392 3.9L3.93923 10.6Z" fill="#0461E5"/>
<path d="M6.43918 14.4C6.13918 14.4 5.93918 14.3 5.73918 14.1L2.33918 10.7C1.93918 10.3 1.93918 9.7 2.33918 9.3C2.73918 8.9 3.33918 8.9 3.73918 9.3L7.13918 12.7C7.53918 13.1 7.53918 13.7 7.13918 14.1C6.93918 14.3 6.73918 14.4 6.43918 14.4Z" fill="#0461E5"/>
</svg>
