<svg width="23" height="11" viewBox="0 0 23 11" fill="none" xmlns="http://www.w3.org/2000/svg">
<path d="M21.1635 2.87822L21.1172 2.9549L21.1884 3.00933L22.4734 3.99241C22.4736 3.99259 22.4739 3.99277 22.4741 3.99295C22.9301 4.35589 23.0166 4.89001 22.7494 5.3365C22.5756 5.59475 22.3159 5.68367 22.0424 5.68367C21.8748 5.68367 21.7022 5.60064 21.5016 5.50127L20.2228 4.52294L20.1453 4.46365L20.0841 4.53967C19.8249 4.86187 19.5709 5.09335 19.3105 5.3306C19.1773 5.45196 19.0425 5.57484 18.9044 5.71213L18.8418 5.77438L18.8958 5.84421L19.8846 7.12271C19.8848 7.12288 19.8849 7.12306 19.885 7.12323C20.0133 7.29393 20.0602 7.53572 20.026 7.77405C19.9922 8.0094 19.8814 8.22607 19.7134 8.35497C19.5132 8.45479 19.3403 8.53741 19.1725 8.53741C18.8984 8.53741 18.6385 8.44809 18.4641 8.18813L18.4643 8.188L18.4602 8.18267L17.4706 6.90314L17.4245 6.84352L17.3544 6.87143C17.1034 6.97149 16.853 7.09595 16.6069 7.21823L16.6049 7.21921C16.3568 7.34252 16.1132 7.46356 15.8704 7.56032L15.7842 7.59466L15.812 7.68317L16.3065 9.25802L16.3065 9.25802L16.3071 9.25978C16.398 9.53162 16.3737 9.77448 16.2751 9.97048C16.1786 10.1625 16.0073 10.3161 15.7884 10.4076H15.5111C15.0541 10.4076 14.7043 10.1363 14.6185 9.79436L14.6187 9.79432L14.6169 9.78874L14.1224 8.21389L14.0955 8.1282L14.0074 8.14578C13.5132 8.24448 12.9275 8.34094 12.4436 8.34094H12.3436V8.44094V10.0158C12.3436 10.2882 12.2528 10.5075 12.101 10.6585C11.9491 10.8095 11.7284 10.9 11.454 10.9C11.1796 10.9 10.9588 10.8095 10.807 10.6585C10.6552 10.5075 10.5644 10.2882 10.5644 10.0158V8.44094V8.35883L10.4839 8.34285C10.2363 8.29373 9.96439 8.2445 9.69349 8.19546L9.69026 8.19487C9.4179 8.14557 9.14668 8.09645 8.90043 8.04753L8.81242 8.03004L8.78554 8.11566L8.29354 9.6826C8.10641 10.0483 7.74286 10.3094 7.39687 10.3094H7.11964C6.67945 10.1232 6.42637 9.59517 6.59881 9.1672L6.59966 9.16503L7.19229 7.58956L7.2289 7.49224L7.13022 7.45946C6.54514 7.26508 6.15543 7.07197 5.66592 6.77961L5.58979 6.73415L5.53554 6.80429L4.54595 8.08382L4.54576 8.08367L4.54194 8.0894C4.36817 8.34918 4.10781 8.43855 3.83363 8.43855C3.66589 8.43855 3.49323 8.35545 3.29255 8.25602C3.12436 8.12712 3.01349 7.91049 2.97968 7.67521C2.94544 7.4369 2.99251 7.19511 3.12107 7.0244C3.12118 7.02425 3.1213 7.02409 3.12142 7.02393L4.11028 5.74536L4.17061 5.66735L4.09345 5.60594C3.76949 5.3481 3.53674 5.09543 3.29819 4.83648C3.17617 4.70401 3.05263 4.5699 2.91458 4.43261L2.85266 4.37102L2.7833 4.42409L1.50438 5.4025C1.30422 5.50226 1.13138 5.58481 0.963675 5.58481C0.690314 5.58481 0.431073 5.49596 0.256645 5.23754C-0.0157567 4.78332 0.0824361 4.25319 0.43023 3.99363L0.430234 3.99364L0.43118 3.99291L1.71769 3.0087L1.77812 2.96247L1.74968 2.8919C1.64906 2.64219 1.5239 2.39308 1.40097 2.1484L1.39996 2.14639C1.27599 1.89963 1.15432 1.65733 1.05705 1.41594C0.875973 0.966004 1.06121 0.439888 1.49575 0.266664C1.94921 0.0861434 2.47857 0.271234 2.65252 0.702929L2.65249 0.70294L2.65343 0.705123C4.15319 4.18608 7.55354 6.47373 11.4527 6.47373C15.3518 6.47373 18.8518 4.1865 20.3518 0.605976L20.3523 0.604706C20.5263 0.173017 21.0562 -0.0120496 21.5091 0.168429C21.9436 0.341622 22.1289 0.868356 21.9478 1.31768L21.9476 1.31762L21.9457 1.32334C21.7522 1.90197 21.4611 2.38541 21.1635 2.87822Z" fill="#191737" stroke="white" stroke-width="0.2"/>
</svg>
