<svg width="24" height="24" viewBox="0 0 24 24" fill="none" xmlns="http://www.w3.org/2000/svg">
<path d="M11.5283 20.4794C9.33194 20.4794 7.03136 19.5192 4.69055 17.6251C2.84974 16.1359 1.38888 14.3982 0.487481 13.2032C-0.162402 12.3414 -0.162585 11.138 0.487481 10.2759C1.38888 9.08066 2.84992 7.34317 4.69055 5.85394C7.03131 3.9604 9.33185 3 11.5283 3C13.7247 3 16.025 3.96022 18.3655 5.8543C20.206 7.34354 21.6672 9.08085 22.5692 10.2762C23.219 11.1382 23.219 12.3418 22.569 13.2036C21.6674 14.3988 20.2062 16.1362 18.3657 17.6255C16.0248 19.5192 13.7244 20.4794 11.528 20.4794H11.5283ZM1.71942 11.2055C1.4821 11.5204 1.4821 11.9599 1.71942 12.2743C3.23033 14.2776 7.21027 18.9366 11.5283 18.9366C15.8458 18.9366 19.8263 14.2774 21.3371 12.2743C21.5748 11.9595 21.5745 11.52 21.3371 11.2055C19.8262 9.20222 15.8458 4.54278 11.5283 4.54278C7.21059 4.54278 3.23024 9.20199 1.71942 11.2055Z" fill="#191737"/>
<path d="M11.5285 16.0331C9.16135 16.0331 7.23535 14.1075 7.23535 11.7404C7.23535 9.37331 9.16135 7.44727 11.5285 7.44727C13.8956 7.44727 15.8212 9.37326 15.8212 11.7404C15.8212 14.1075 13.8955 16.0331 11.5285 16.0331ZM11.5285 8.99014C10.0121 8.99014 8.77836 10.2237 8.77836 11.7402C8.77836 13.2568 10.0121 14.49 11.5285 14.49C13.0448 14.49 14.2782 13.2566 14.2782 11.7402C14.2782 10.2239 13.0448 8.99014 11.5285 8.99014Z" fill="#191737"/>
</svg>
